<svg xmlns="http://www.w3.org/2000/svg" width="56" height="56" viewBox="0 0 56 56">
  <g fill="none" fill-rule="evenodd">
    <circle cx="28" cy="28" r="28" fill="#FFF"/>
    <path fill="#ECECEC" d="M3.29411765,22.0705882 C3.29411765,37.5345612 15.8301447,50.0705882 31.2941176,50.0705882 C40.6137092,50.0705882 48.8698566,45.5174429 53.9594401,38.5142723 C49.8016044,48.7681494 39.7453468,56 28,56 C12.536027,56 0,43.463973 0,28 C0,21.8566257 1.97848021,16.1753502 5.33302762,11.5585865 C4.01843981,14.8055154 3.29411765,18.3534646 3.29411765,22.0705882 Z"/>
    <path fill="#000" d="M33.0433549,27.1444443 C33.0433549,30.4646503 35.7349137,33.1562091 39.0551197,33.1562091 C41.5312714,33.1562091 43.6577748,31.6591866 44.5789382,29.5208333 C45.3522062,31.0420414 45.7882353,32.7642183 45.7882353,34.5882353 C45.7882353,40.7738245 40.7738245,45.7882353 34.5882353,45.7882353 C28.4026461,45.7882353 23.3882353,40.7738245 23.3882353,34.5882353 C23.3882353,28.5959458 28.0941423,23.7027797 34.0118848,23.4028087 L34.3597499,23.3897839 C33.5359993,24.418582 33.0433549,25.7239816 33.0433549,27.1444443 Z"/>
  </g>
</svg>
