<svg xmlns="http://www.w3.org/2000/svg" width="20" height="20" viewBox="0 0 20 20">
  <g fill="none" fill-rule="evenodd">
    <path fill="#FFF" fill-opacity=".2" stroke="#FFF" stroke-width="1.5" d="M15.1541722,3.75 C16.1318594,3.75 16.5799165,3.81574703 16.9505583,3.98235557 C17.4395167,4.24202747 17.7340661,4.51494555 17.9297289,4.87336497 C18.1761056,5.40233332 18.25,5.85294468 18.25,6.8458278 L18.25,6.8458278 L18.25,13.1541722 C18.25,14.1318594 18.184253,14.5799165 18.0176444,14.9505583 C17.7579725,15.4395167 17.4850545,15.7340661 17.126635,15.9297289 C16.5976667,16.1761056 16.1470553,16.25 15.1541722,16.25 L15.1541722,16.25 L4.8458278,16.25 C3.86814061,16.25 3.42008352,16.184253 3.04943941,16.0176432 C2.56042105,15.7579391 2.26585972,15.4849854 2.07019072,15.1264963 C1.83962949,14.6324697 1.7636597,14.2259568 1.75162622,13.389708 L1.75162622,13.389708 L1.75,6.8458278 C1.75,5.86814061 1.81574703,5.42008352 1.98235679,5.04943941 C2.24206087,4.56042105 2.51501457,4.26585972 2.87350344,4.07019084 C3.36752328,3.83963273 3.77403176,3.76366181 4.6102571,3.75162672 L4.6102571,3.75162672 Z"/>
    <path stroke="#FFF" stroke-linecap="round" stroke-linejoin="round" stroke-width="1.5" d="M2.34758005,4.87806404 L8.7506099,10.0004879 C9.48104721,10.5848378 10.5189528,10.5848378 11.2493901,10.0004879 L17.7290047,4.81679628 L17.7290047,4.81679628"/>
  </g>
</svg>
