<?xml version="1.0" encoding="UTF-8"?>
<svg width="20px" height="20px" viewBox="0 0 20 20" version="1.1" xmlns="http://www.w3.org/2000/svg" xmlns:xlink="http://www.w3.org/1999/xlink">
    <title>mastodon</title>
    <g id="mastodon" stroke="none" stroke-width="1" fill="none" fill-rule="evenodd">
        <g id="Group" transform="translate(2, 1.5)" fill="#FFFFFF" fill-rule="nonzero">
            <g id="Group-2">
                <path d="M15.9993945,5.58153201 C15.9993945,1.89370486 13.5604721,0.812423627 13.5604721,0.812423627 C11.1675023,-0.276467133 4.81169723,-0.265133797 2.44172423,0.812423627 C2.44172423,0.812423627 0.00280180952,1.89366438 0.00280180952,5.58153201 C0.00280180952,9.97121649 -0.249958276,15.4232393 4.04598285,16.5500968 C5.59656876,16.9559516 6.92903268,17.0432993 8.00105732,16.982585 C9.94606006,16.8763754 11.0372419,16.2958253 11.0372419,16.2958253 L10.9721729,14.895794 C10.9721729,14.895794 9.58231918,15.3284036 8.02021447,15.2790226 C6.47334562,15.2258774 4.84229149,15.1120988 4.58957225,13.2302792 C4.5665755,13.0633554 4.55513839,12.888822 4.55513839,12.7029148 C7.83256421,13.4958031 10.6274666,13.0482173 11.3971431,12.9571054 C13.5451137,12.7029148 15.4173683,11.3901502 15.6547291,10.1912451 C16.0300705,8.30181605 15.9993945,5.58153201 15.9993945,5.58153201 L15.9993945,5.58153201 Z" id="Path" stroke="#FFFFFF" stroke-width="1.5" fill-opacity="0.2" stroke-linejoin="round"></path>
                <path d="M12.981146,10.2809404 L11.2461857,10.2809404 L11.2461857,5.99884164 C11.2461857,4.11321734 8.8633163,4.04112923 8.8633163,6.26064171 L8.8633163,8.63189947 L7.13959674,8.63189947 L7.13959674,6.26064171 C7.13959674,4.04112923 4.75676705,4.11321734 4.75676705,5.99884164 L4.75676705,10.2809404 L3.01811284,10.2809404 C3.01811284,5.64847965 2.8245186,4.72023893 3.70316,3.69206247 C4.66743725,2.59556219 6.67423973,2.52351455 7.56777604,3.92350539 L7.99964927,4.66332939 L8.43152251,3.92350539 C9.3288322,2.51586455 11.3392889,2.60317171 12.2960988,3.69206247 C13.1785136,4.72784846 12.981146,5.65224393 12.981146,10.2809404 L12.981146,10.2809404 Z" id="Path"></path>
            </g>
        </g>
    </g>
</svg>