<svg xmlns="http://www.w3.org/2000/svg" width="20" height="20" viewBox="0 0 20 20">
  <g fill="#FFF" fill-rule="evenodd">
    <path fill-opacity=".2" stroke="#FFF" stroke-width="1.5" d="M10,0.75 C12.701932,0.75 15.1481225,1.43090694 16.8538571,2.88078142 C18.3526279,4.1547366 19.25,6.02548807 19.25,8.5 C19.25,9.99374209 18.9263019,11.2675174 18.3367192,12.3228749 C17.6332131,13.5821564 16.5535894,14.5246776 15.232131,15.1691308 L15.232131,15.1691308 L15.6567077,18.7852481 L11.5165033,16.1743535 C11.0226463,16.2249211 10.5161143,16.25 10,16.25 C7.29806797,16.25 4.85187755,15.5690931 3.14614287,14.1192186 C1.64737206,12.8452634 0.75,10.9745119 0.75,8.5 C0.75,6.02548807 1.64737206,4.1547366 3.14614287,2.88078142 C4.85187755,1.43090694 7.29806797,0.75 10,0.75 Z"/>
    <path fill-rule="nonzero" d="M12.7729478,12.4219525 C12.8607812,12.3547449 12.9146145,12.2665349 12.9344479,12.1573225 C12.9542812,12.0481102 12.9386979,11.9178955 12.8876979,11.7666784 L12.0546976,9.31780141 L14.1796983,7.81403134 C14.3100317,7.71882057 14.4014067,7.62150957 14.4538234,7.52209832 C14.5062401,7.42268708 14.5140318,7.3211756 14.4771984,7.21756388 C14.4431984,7.11395217 14.3751984,7.03624338 14.2731983,6.98443752 C14.1711983,6.93263166 14.0408649,6.90812889 13.8821982,6.91092921 L11.2726973,6.92773111 L10.482197,4.46625273 C10.431197,4.31223531 10.3660303,4.19602217 10.286697,4.1176133 C10.2073636,4.03920443 10.1110302,4 9.99769686,4 C9.88719682,4 9.79228012,4.03920443 9.71294676,4.1176133 C9.6336134,4.19602217 9.56844671,4.31223531 9.5174467,4.46625273 L8.72694642,6.92773111 L6.12169553,6.91092921 C5.96019547,6.90812889 5.82915376,6.93263166 5.72857039,6.98443752 C5.62798702,7.03624338 5.55927867,7.11255201 5.52244532,7.21336341 C5.48561197,7.31977544 5.49411198,7.42268708 5.54794533,7.52209832 C5.60177868,7.62150957 5.69386205,7.71882057 5.82419542,7.81403134 L7.94919616,9.31780141 L7.11619587,11.7666784 C7.06519585,11.9178955 7.04890418,12.0481102 7.06732085,12.1573225 C7.08573753,12.2665349 7.13886254,12.3547449 7.22669591,12.4219525 C7.31736261,12.4891601 7.41865431,12.5129628 7.53057101,12.4933605 C7.64248772,12.4737583 7.76361276,12.4163518 7.89394614,12.3211411 L9.99769686,10.7921681 L12.1056976,12.3211411 C12.2388643,12.4163518 12.361406,12.4737583 12.4733227,12.4933605 C12.5852394,12.5129628 12.6851145,12.4891601 12.7729478,12.4219525 Z"/>
  </g>
</svg>
