<?xml version="1.0" encoding="UTF-8"?>
<svg width="20px" height="20px" viewBox="0 0 20 20" version="1.1" xmlns="http://www.w3.org/2000/svg" xmlns:xlink="http://www.w3.org/1999/xlink">
    <title>twitter</title>
    <g id="Page-1" stroke="none" stroke-width="1" fill="none" fill-rule="evenodd" fill-opacity="0.2" stroke-linejoin="round">
        <g id="104501_twitter_bird_icon" transform="translate(1.000000, 2.750000)" fill="#FFFFFF" stroke="#FFFFFF" stroke-width="1.5">
            <path d="M18,1.71642854 C17.3382863,2.00799321 16.6261494,2.20466354 15.8789355,2.29267623 C16.641861,1.83993605 17.2268437,1.12279562 17.5027099,0.267297797 C16.7891115,0.687078483 15.9991474,0.99168207 15.157664,1.1561173 C14.484258,0.444771944 13.5243895,0 12.462213,0 C10.4229949,0 8.76962426,1.63891942 8.76962426,3.66067593 C8.76962426,3.94716991 8.8021436,4.22642004 8.86535534,4.49480442 C5.79611473,4.34195933 3.07472139,2.88486037 1.25327325,0.670055453 C0.935387613,1.21044612 0.753425492,1.83921167 0.753425492,2.51071589 C0.753425492,3.78056152 1.40527373,4.90118399 2.39619999,5.55747615 C1.79112113,5.53827996 1.22148468,5.37348254 0.723463857,5.09930309 C0.723098471,5.11451516 0.723098471,5.13008942 0.723098471,5.14566369 C0.723098471,6.91895639 1.99610255,8.39814907 3.68564643,8.73498776 C3.37579928,8.81829195 3.04950977,8.86320378 2.71262408,8.86320378 C2.47439255,8.86320378 2.24310334,8.84038567 2.01766031,8.79728481 C2.48791182,10.2514862 3.85153158,11.3101739 5.46726752,11.3395114 C4.20339809,12.3214143 2.61141222,12.9067168 0.880945131,12.9067168 C0.583155715,12.9067168 0.289020157,12.8893316 0,12.8552855 C1.63473601,13.8944147 3.57566531,14.5 5.66092199,14.5 C12.4538091,14.5 16.1679557,8.9222411 16.1679557,4.08480292 C16.1679557,3.92616276 16.1646672,3.7678848 16.1577249,3.61069341 C16.8789964,3.09565619 17.5052676,2.450592 18,1.71642854 Z" id="Path"></path>
        </g>
    </g>
</svg>