<svg xmlns="http://www.w3.org/2000/svg" xmlns:xlink="http://www.w3.org/1999/xlink" width="53" height="54" viewBox="0 0 53 54">
  <defs>
    <circle id="eye-a" cx="26.769" cy="26.154" r="26.154"/>
    <path id="eye-c" d="M13.7289556,0.732248481 C12.5514674,1.76158585 11.8076923,3.27470315 11.8076923,4.96153844 C11.8076923,8.06282973 14.3217856,10.5769231 17.4230769,10.5769231 C18.8355423,10.5769231 20.1262055,10.0554259 21.1130278,9.19447047 C21.1905707,9.70809885 21.2307692,10.2339704 21.2307692,10.7692308 C21.2307692,16.5469789 16.5469789,21.2307692 10.7692307,21.2307692 C4.99148259,21.2307692 0.307692277,16.5469789 0.307692277,10.7692308 C0.307692277,4.99148261 4.99148259,0.307692302 10.7692307,0.307692302 C11.7971719,0.307692302 12.7904856,0.455949817 13.7289556,0.732248481 Z"/>
  </defs>
  <g fill="none" fill-rule="evenodd" transform="translate(-.615 .77)">
    <mask id="eye-b" fill="#fff">
      <use xlink:href="#eye-a"/>
    </mask>
    <use fill="#ECECEC" xlink:href="#eye-a"/>
    <circle cx="29.846" cy="20.615" r="26.154" fill="#FFF" mask="url(#eye-b)"/>
    <g mask="url(#eye-b)">
      <g transform="translate(22.154 21.538)">
        <use fill="#000" xlink:href="#eye-c"/>
      </g>
    </g>
  </g>
</svg>
