<?xml version="1.0" encoding="UTF-8" standalone="no"?>
<svg width="46px" height="46px" viewBox="0 0 46 46" version="1.1" xmlns="http://www.w3.org/2000/svg" xmlns:xlink="http://www.w3.org/1999/xlink">
    <!-- Generator: Sketch 3.8.2 (29753) - http://www.bohemiancoding.com/sketch -->
    <title>little-monster-nav</title>
    <desc>Created with Sketch.</desc>
    <defs></defs>
    <g id="Page-1" stroke="none" stroke-width="1" fill="none" fill-rule="evenodd">
        <g id="Group" transform="translate(-16.000000, 0.000000)">
            <g id="Icon">
                <circle id="Circle" fill="#463191" cx="39" cy="23" r="23"></circle>
                <g id="Monster" transform="translate(29.388060, 7.691698)">
                    <path d="M3.84908548,29.2429165 C3.47616308,29.4402642 2.9276027,29.4547903 2.39698057,29.434783 C1.4607522,29.3994821 0.680359054,28.571478 0.653938226,27.5859265 L0.440603865,19.6281138 L0.337485242,15.7815759 L0.266902535,13.1486954 L0.122018774,7.7442313 C0.0739741275,5.95206665 0.0499478155,5.05583554 0.336969927,4.08226405 C0.704238928,3.01586866 2.25578985,1.29701433 4.44834889,0.976934738 C4.50340974,0.976934738 4.55364978,0.977727611 4.59956703,0.979235309 C5.12844143,0.897527254 5.78464411,0.856140525 6.83460954,0.818085946 C6.96725984,0.813278215 7.07629917,0.809459635 7.3333175,0.800557373 L12.9195797,0.607067318 C15.1296047,0.530519197 15.7177798,0.543922648 16.5434331,0.746552229 C16.6106057,0.763037529 16.6777267,0.780836427 16.753079,0.802506648 C17.8856512,1.18306649 18.7623726,2.06290251 19.1496718,3.21251373 C19.1682048,3.27715342 19.1854931,3.34159281 19.2016029,3.40607752 C19.4103294,4.24156966 19.4285176,4.83673688 19.3703962,7.07853035 L19.2238472,12.7310585 C19.1840959,14.2642982 19.1840959,14.2642982 19.1629532,15.0797913 L19.0481493,19.5078814 L18.8323628,27.8309567 C18.8095338,28.7114922 18.2797977,29.4469747 17.5532031,29.7081946 C17.1393923,29.9479763 16.5188407,29.9672534 15.9585118,29.946126 C15.0222835,29.9108251 14.2763755,29.0534675 14.292471,28.0317267 L14.4224333,19.781704 L14.4291021,19.3583669 C14.4437162,18.4306655 13.8071846,17.6594662 12.9631389,17.5208166 C12.4323504,17.7849073 12.0631088,18.3498436 12.0595572,19.0078107 L12.0572923,19.4273992 L12.0131541,27.6043694 C12.0084141,28.4824965 11.4803263,29.2140654 10.7452757,29.463112 C10.3121171,29.6800715 9.69965897,29.7101334 9.1777462,29.6904545 C8.24151784,29.6551536 7.4783673,28.8124727 7.47320461,27.8088266 L7.43151858,19.7049089 L7.42937953,19.2890689 C7.42468857,18.3771291 6.77122841,17.6190854 5.92348416,17.4836251 C5.40270801,17.7430493 5.04963731,18.2937056 5.05981455,18.9346902 L5.06635754,19.3467815 L5.19386773,27.3776467 C5.20831288,28.2874329 4.63931375,29.037383 3.84908548,29.2429165 L3.84908548,29.2429165 Z" id="-" fill="#BF266B"></path>
                    <path d="M1.39123532,19.3112366 L1.60456968,27.2690493 C1.63099051,28.2546008 2.41138366,29.0826049 3.34761202,29.1179058 C4.28404624,29.1532144 5.02999853,28.3753433 5.01420288,27.3804994 L4.88669268,19.3496342 L4.88014969,18.9375428 C4.86435305,17.9426359 5.63911392,17.1401916 6.61110377,17.1452357 C7.58287996,17.1502787 8.37484506,17.9679159 8.38001099,18.9721918 L8.38215004,19.3880317 L8.42383607,27.4919494 C8.42899876,28.4955956 9.19214929,29.3382764 10.1283777,29.3735773 C11.0648119,29.4088859 11.8280015,28.6163426 11.8334693,27.6033995 L11.8776074,19.4264293 L11.8798723,19.0068407 C11.8853404,17.9938336 12.6773397,17.1767161 13.6493295,17.1817602 C14.6211057,17.1868032 15.3958391,18.0191078 15.3797336,19.0414897 L15.3730648,19.4648268 L15.2431024,27.7148495 C15.227007,28.7365904 15.9729149,29.5939479 16.9091433,29.6292488 C17.8455775,29.6645574 18.6260045,28.8573418 18.6527356,27.8262996 L18.8685221,19.5032244 L18.9833261,15.0751342 C18.9944347,14.6466662 19.0145029,13.8726161 19.04422,12.7264014 L19.1907691,7.07387329 C19.239366,5.19944851 19.2636685,4.26208052 18.9769436,3.26203705 C18.6099992,2.17340562 17.7750094,1.33544943 16.6958461,0.972835717 C15.7044754,0.690402791 14.778404,0.72247891 12.9257998,0.786647128 L7.33953756,0.980137184 C5.48693335,1.0443054 4.56070814,1.07638685 3.56939728,1.41793235 C2.49011583,1.83971188 1.65487039,2.69899151 1.28760139,3.7653869 C1.00057927,4.73895839 1.02460559,5.63518949 1.07265023,7.42735415 L1.21753399,12.8318182 L1.2881167,15.4646988 L1.39123532,19.3112366 Z" id="-" fill="#EF4792"></path>
                    <circle id="-" fill="#FFFFFF" cx="9.98163031" cy="10.4891289" r="4.489093"></circle>
                    <ellipse id="-" fill="#000000" cx="11.0378875" cy="11.5453861" rx="1.7956372" ry="1.7956372"></ellipse>
                    <circle id="-" fill="#FFFFFF" cx="11.4075775" cy="10.806006" r="0.534730198"></circle>
                    <path d="M14.1433783,12.1750922 C13.4768008,13.8188968 11.864603,14.9782219 9.98163031,14.9782219 C7.5023727,14.9782219 5.49253731,12.9683865 5.49253731,10.4891289 C5.49253731,9.50391479 5.80991647,8.59282858 6.34801094,7.8525341 C6.13692443,8.37308119 6.0206659,8.94221248 6.0206659,9.53849742 C6.0206659,12.017755 8.03050129,14.0275904 10.5097589,14.0275904 C12.0038024,14.0275904 13.3273764,13.2977235 14.1433783,12.1750922 L14.1433783,12.1750922 Z" id="-" fill="#ECECEC"></path>
                </g>
            </g>
        </g>
    </g>
</svg>