<?xml version="1.0" encoding="UTF-8" standalone="no"?>
<svg width="113px" height="172px" viewBox="0 0 113 172" version="1.1" xmlns="http://www.w3.org/2000/svg" xmlns:xlink="http://www.w3.org/1999/xlink">
    <!-- Generator: Sketch 3.7.2 (28276) - http://www.bohemiancoding.com/sketch -->
    <title>little-m</title>
    <desc>Created with Sketch.</desc>
    <defs></defs>
    <g id="Page-1" stroke="none" stroke-width="1" fill="none" fill-rule="evenodd">
        <g id="Desktop-HD" transform="translate(-507.000000, -425.000000)">
            <g id="little-m" transform="translate(506.500000, 425.500000)">
                <path d="M13.9650172,168.302105 C8.51046935,168.096439 3.96383101,163.272415 3.80990097,157.530506 L2.56699643,111.167598 L1.96621836,88.7573338 L1.55499737,73.4179426 L0.71089199,41.931065 C0.430979699,31.4897579 0.291000317,26.2682375 1.9632161,20.5961254 C4.10295723,14.3832131 13.1424278,4.3690183 25.9164674,2.50420674 C26.3398663,2.50420674 26.7143372,2.51225385 27.0465515,2.52730257 C30.0841674,2.07572374 33.8641712,1.84147143 39.8207273,1.6255841 C40.5935256,1.59757507 41.2284634,1.57533942 42.7261681,1.52346378 L75.2722173,0.396173888 C88.1432291,-0.0496363316 91.5678463,0.0284045267 96.3723075,1.2075023 C96.7630992,1.30340934 97.1535955,1.40695956 97.5899645,1.53240718 C104.174496,3.74490029 109.271465,8.8599763 111.522594,15.5418034 C111.630421,15.9178845 111.731004,16.2927947 111.824731,16.6679652 C113.03935,21.5298523 113.145252,24.9952429 112.806754,38.0514185 L111.952946,70.9835391 C111.721352,79.9163268 111.721352,79.9163268 111.598173,84.6674606 L110.929315,110.465899 L109.672124,158.956859 C109.542064,163.973376 106.578139,168.177702 102.482708,169.7642 C100.07545,171.284977 96.339318,171.408061 92.9756776,171.281234 C87.5211298,171.075568 83.1754053,166.080528 83.2691788,160.127777 L84.0263505,112.062427 L84.0652036,109.596029 C84.1508032,104.162158 80.4019506,99.6498943 75.4451119,98.8776168 C72.3685636,100.436151 70.2338134,103.726138 70.2131544,107.553405 L70.199959,109.997964 L69.9428063,157.637703 C69.9159674,162.609852 66.9986871,166.771269 62.896547,168.312455 C60.3615865,169.716911 56.6309876,169.910843 53.4703474,169.791669 C48.0157996,169.586004 43.5696182,164.676472 43.5395399,158.829142 L43.2966735,111.615013 L43.2842112,109.192293 C43.2567344,103.850702 39.4087406,99.4153856 34.4310152,98.6612123 C31.4134994,100.192465 29.3728466,103.39961 29.4320505,107.128396 L29.4701705,109.529276 L30.2130559,156.317795 C30.2957325,161.524939 27.0854767,165.8285 22.5991851,167.088596 C20.4254407,168.329312 17.1401082,168.421823 13.9650172,168.302105 Z" id="-" fill="#BF266B"></path>
                <path d="M9.10509882,109.294645 L8.50432076,86.8843814 L8.09309977,71.5449902 L7.24899438,40.0581126 C6.9244479,27.9518579 7.02019369,24.7294993 8.10724415,20.3366849 C8.21462107,19.9027705 8.33222817,19.4690756 8.46086224,19.0327522 C10.4906008,13.1423482 15.1428526,8.35622801 21.1596081,6.00490035 C21.4894543,5.89213327 21.8560134,5.77282947 22.2226785,5.66049863 C26.4359843,4.36971788 30.2105179,3.97520633 39.893167,3.62427179 C40.6645208,3.59631512 41.2987913,3.57410284 42.7954001,3.52226515 L75.3414494,2.39497526 C88.0082417,1.95623854 91.3414695,2.0321968 95.8956185,3.14986363 C96.262461,3.23989312 96.6291915,3.33714125 96.9974616,3.44205821 C102.943004,5.44098869 107.575482,10.0899239 109.613708,16.1368239 C109.701576,16.4471107 109.796215,16.7998639 109.884366,17.152716 C111.037559,21.7687265 111.140716,25.1442883 110.807426,37.9995833 L109.953618,70.9317039 C109.722024,79.8644917 109.722024,79.8644917 109.598844,84.6156254 L108.929987,110.414063 L107.672796,158.905024 C107.530944,164.376354 103.427706,168.619637 98.5518178,168.43579 C93.6608651,168.251375 89.7220161,163.724939 89.8075163,158.297374 L90.564688,110.232025 L90.6035411,107.765626 C90.705952,101.26457 85.7578144,95.947275 79.5273702,95.9149425 C73.3031799,95.8826424 68.247975,101.097196 68.2131835,107.542609 L68.1999881,109.987168 L67.9428355,157.626908 C67.9139328,162.981365 63.9182605,167.129918 59.0464876,166.946226 C54.1427834,166.76133 50.105386,162.304081 50.0779882,156.977844 L49.8351218,109.763715 L49.8226595,107.340995 C49.7897817,100.949425 44.7398647,95.7344146 38.5220548,95.7021476 C32.2935299,95.669825 27.3314498,100.808225 27.4323025,107.160147 L27.4704225,109.561027 L28.213308,156.349546 C28.2964623,161.58678 24.40861,165.640191 19.5411574,165.456661 C14.6247698,165.271287 10.4880906,160.883097 10.3480034,155.657554 L9.10509882,109.294645 L9.10509882,109.294645 Z" id="-" fill="#EE4792"></path>
            </g>
        </g>
    </g>
</svg>